<mxfile host="app.diagrams.net" agent="Mozilla/5.0 (Windows NT 10.0; Win64; x64) AppleWebKit/537.36 (KHTML, like Gecko) Chrome/127.0.0.0 Safari/537.36" version="24.7.16">
  <diagram name="第 1 页" id="2DwoX0Ni8ycWrk0vnenw">
    <mxGraphModel grid="1" page="1" gridSize="10" guides="1" tooltips="1" connect="1" arrows="1" fold="1" pageScale="1" pageWidth="827" pageHeight="1169" math="0" shadow="0">
      <root>
        <mxCell id="0" />
        <mxCell id="1" parent="0" />
        <mxCell id="H-HfoSN8iYpL4Tz-F-pN-93" value="" style="rounded=0;whiteSpace=wrap;html=1;dashed=1;" vertex="1" parent="1">
          <mxGeometry x="90" y="1220" width="1020" height="177" as="geometry" />
        </mxCell>
        <mxCell id="H-HfoSN8iYpL4Tz-F-pN-80" value="" style="rounded=0;whiteSpace=wrap;html=1;dashed=1;" vertex="1" parent="1">
          <mxGeometry x="20" y="1040" width="890" height="170" as="geometry" />
        </mxCell>
        <mxCell id="H-HfoSN8iYpL4Tz-F-pN-72" value="" style="rounded=0;whiteSpace=wrap;html=1;dashed=1;" vertex="1" parent="1">
          <mxGeometry x="20" y="730" width="890" height="290" as="geometry" />
        </mxCell>
        <mxCell id="H-HfoSN8iYpL4Tz-F-pN-51" value="" style="rounded=0;whiteSpace=wrap;html=1;dashed=1;" vertex="1" parent="1">
          <mxGeometry x="20" y="418" width="890" height="302" as="geometry" />
        </mxCell>
        <mxCell id="H-HfoSN8iYpL4Tz-F-pN-1" value="客户端" style="rounded=1;whiteSpace=wrap;html=1;arcSize=3;fillColor=#e1d5e7;strokeColor=#9673a6;fontSize=14;" vertex="1" parent="1">
          <mxGeometry x="40" y="30" width="120" height="60" as="geometry" />
        </mxCell>
        <mxCell id="H-HfoSN8iYpL4Tz-F-pN-2" value="QQ/WX/Apple" style="rounded=1;whiteSpace=wrap;html=1;arcSize=3;fillColor=#e1d5e7;strokeColor=#9673a6;fontSize=14;" vertex="1" parent="1">
          <mxGeometry x="440" y="30" width="120" height="60" as="geometry" />
        </mxCell>
        <mxCell id="H-HfoSN8iYpL4Tz-F-pN-3" value="BizGameServer" style="rounded=1;whiteSpace=wrap;html=1;arcSize=3;fillColor=#e1d5e7;strokeColor=#9673a6;fontSize=14;" vertex="1" parent="1">
          <mxGeometry x="240" y="30" width="120" height="60" as="geometry" />
        </mxCell>
        <mxCell id="H-HfoSN8iYpL4Tz-F-pN-4" value="Gate" style="rounded=1;whiteSpace=wrap;html=1;arcSize=3;fillColor=#e1d5e7;strokeColor=#9673a6;fontSize=14;" vertex="1" parent="1">
          <mxGeometry x="640" y="30" width="120" height="60" as="geometry" />
        </mxCell>
        <mxCell id="H-HfoSN8iYpL4Tz-F-pN-5" value="Session" style="rounded=1;whiteSpace=wrap;html=1;arcSize=3;fillColor=#e1d5e7;strokeColor=#9673a6;fontSize=14;" vertex="1" parent="1">
          <mxGeometry x="840" y="30" width="120" height="60" as="geometry" />
        </mxCell>
        <mxCell id="H-HfoSN8iYpL4Tz-F-pN-6" value="游戏服务" style="rounded=1;whiteSpace=wrap;html=1;arcSize=3;fillColor=#e1d5e7;strokeColor=#9673a6;fontSize=14;" vertex="1" parent="1">
          <mxGeometry x="1040" y="30" width="120" height="60" as="geometry" />
        </mxCell>
        <mxCell id="H-HfoSN8iYpL4Tz-F-pN-7" value="客户端" style="rounded=1;whiteSpace=wrap;html=1;arcSize=3;fillColor=#e1d5e7;strokeColor=#9673a6;fontSize=14;" vertex="1" parent="1">
          <mxGeometry x="40" y="1417" width="120" height="60" as="geometry" />
        </mxCell>
        <mxCell id="H-HfoSN8iYpL4Tz-F-pN-8" value="QQ/WX/Apple" style="rounded=1;whiteSpace=wrap;html=1;arcSize=3;fillColor=#e1d5e7;strokeColor=#9673a6;fontSize=14;" vertex="1" parent="1">
          <mxGeometry x="440" y="1417" width="120" height="60" as="geometry" />
        </mxCell>
        <mxCell id="H-HfoSN8iYpL4Tz-F-pN-9" value="BizGameServer" style="rounded=1;whiteSpace=wrap;html=1;arcSize=3;fillColor=#e1d5e7;strokeColor=#9673a6;fontSize=14;" vertex="1" parent="1">
          <mxGeometry x="240" y="1417" width="120" height="60" as="geometry" />
        </mxCell>
        <mxCell id="H-HfoSN8iYpL4Tz-F-pN-10" value="Gate" style="rounded=1;whiteSpace=wrap;html=1;arcSize=3;fillColor=#e1d5e7;strokeColor=#9673a6;fontSize=14;" vertex="1" parent="1">
          <mxGeometry x="640" y="1417" width="120" height="60" as="geometry" />
        </mxCell>
        <mxCell id="H-HfoSN8iYpL4Tz-F-pN-11" value="Session" style="rounded=1;whiteSpace=wrap;html=1;arcSize=3;fillColor=#e1d5e7;strokeColor=#9673a6;fontSize=14;" vertex="1" parent="1">
          <mxGeometry x="840" y="1417" width="120" height="60" as="geometry" />
        </mxCell>
        <mxCell id="H-HfoSN8iYpL4Tz-F-pN-12" value="游戏服务" style="rounded=1;whiteSpace=wrap;html=1;arcSize=3;fillColor=#e1d5e7;strokeColor=#9673a6;fontSize=14;" vertex="1" parent="1">
          <mxGeometry x="1040" y="1417" width="120" height="60" as="geometry" />
        </mxCell>
        <mxCell id="H-HfoSN8iYpL4Tz-F-pN-13" value="" style="endArrow=none;html=1;rounded=0;strokeColor=#ADADAD;exitX=0.5;exitY=0;exitDx=0;exitDy=0;entryX=0.5;entryY=1;entryDx=0;entryDy=0;" edge="1" parent="1" source="H-HfoSN8iYpL4Tz-F-pN-7" target="H-HfoSN8iYpL4Tz-F-pN-1">
          <mxGeometry width="50" height="50" relative="1" as="geometry">
            <mxPoint x="99" y="1340" as="sourcePoint" />
            <mxPoint x="100" y="100" as="targetPoint" />
          </mxGeometry>
        </mxCell>
        <mxCell id="H-HfoSN8iYpL4Tz-F-pN-14" value="" style="endArrow=none;html=1;rounded=0;strokeColor=#ADADAD;exitX=0.5;exitY=0;exitDx=0;exitDy=0;" edge="1" parent="1" source="H-HfoSN8iYpL4Tz-F-pN-9">
          <mxGeometry width="50" height="50" relative="1" as="geometry">
            <mxPoint x="300" y="1347" as="sourcePoint" />
            <mxPoint x="300" y="90" as="targetPoint" />
          </mxGeometry>
        </mxCell>
        <mxCell id="H-HfoSN8iYpL4Tz-F-pN-15" value="" style="endArrow=none;html=1;rounded=0;strokeColor=#ADADAD;exitX=0.5;exitY=0;exitDx=0;exitDy=0;" edge="1" parent="1" source="H-HfoSN8iYpL4Tz-F-pN-8">
          <mxGeometry width="50" height="50" relative="1" as="geometry">
            <mxPoint x="499.40999999999997" y="930" as="sourcePoint" />
            <mxPoint x="500" y="90" as="targetPoint" />
          </mxGeometry>
        </mxCell>
        <mxCell id="H-HfoSN8iYpL4Tz-F-pN-16" value="" style="endArrow=none;html=1;rounded=0;strokeColor=#ADADAD;exitX=0.5;exitY=0;exitDx=0;exitDy=0;" edge="1" parent="1" source="H-HfoSN8iYpL4Tz-F-pN-10">
          <mxGeometry width="50" height="50" relative="1" as="geometry">
            <mxPoint x="699.41" y="930" as="sourcePoint" />
            <mxPoint x="700" y="90" as="targetPoint" />
          </mxGeometry>
        </mxCell>
        <mxCell id="H-HfoSN8iYpL4Tz-F-pN-17" value="" style="endArrow=none;html=1;rounded=0;strokeColor=#ADADAD;exitX=0.5;exitY=0;exitDx=0;exitDy=0;" edge="1" parent="1" source="H-HfoSN8iYpL4Tz-F-pN-11">
          <mxGeometry width="50" height="50" relative="1" as="geometry">
            <mxPoint x="899.41" y="930" as="sourcePoint" />
            <mxPoint x="900" y="90" as="targetPoint" />
          </mxGeometry>
        </mxCell>
        <mxCell id="H-HfoSN8iYpL4Tz-F-pN-18" value="" style="endArrow=none;html=1;rounded=0;strokeColor=#ADADAD;exitX=0.5;exitY=0;exitDx=0;exitDy=0;" edge="1" parent="1" source="H-HfoSN8iYpL4Tz-F-pN-12">
          <mxGeometry width="50" height="50" relative="1" as="geometry">
            <mxPoint x="1099.41" y="930" as="sourcePoint" />
            <mxPoint x="1100" y="90" as="targetPoint" />
          </mxGeometry>
        </mxCell>
        <mxCell id="H-HfoSN8iYpL4Tz-F-pN-19" value="" style="endArrow=classic;html=1;rounded=0;" edge="1" parent="1">
          <mxGeometry width="50" height="50" relative="1" as="geometry">
            <mxPoint x="100" y="130" as="sourcePoint" />
            <mxPoint x="500" y="130" as="targetPoint" />
          </mxGeometry>
        </mxCell>
        <mxCell id="H-HfoSN8iYpL4Tz-F-pN-20" value="OAuth2授权" style="text;html=1;align=center;verticalAlign=middle;resizable=0;points=[];autosize=1;strokeColor=none;fillColor=none;fontStyle=1;fontSize=14;" vertex="1" parent="1">
          <mxGeometry x="250" y="98" width="100" height="30" as="geometry" />
        </mxCell>
        <mxCell id="H-HfoSN8iYpL4Tz-F-pN-21" value="" style="endArrow=none;html=1;rounded=0;startArrow=classic;startFill=1;endFill=0;" edge="1" parent="1">
          <mxGeometry width="50" height="50" relative="1" as="geometry">
            <mxPoint x="100" y="170" as="sourcePoint" />
            <mxPoint x="500" y="170" as="targetPoint" />
          </mxGeometry>
        </mxCell>
        <mxCell id="H-HfoSN8iYpL4Tz-F-pN-24" value="&lt;span style=&quot;font-size: 14px; font-weight: 700; text-wrap: nowrap;&quot;&gt;返回AccessToken&lt;/span&gt;" style="text;html=1;align=center;verticalAlign=middle;whiteSpace=wrap;rounded=0;" vertex="1" parent="1">
          <mxGeometry x="270" y="139" width="60" height="30" as="geometry" />
        </mxCell>
        <mxCell id="H-HfoSN8iYpL4Tz-F-pN-25" value="" style="endArrow=classic;html=1;rounded=0;" edge="1" parent="1">
          <mxGeometry width="50" height="50" relative="1" as="geometry">
            <mxPoint x="100" y="210" as="sourcePoint" />
            <mxPoint x="300" y="210" as="targetPoint" />
          </mxGeometry>
        </mxCell>
        <mxCell id="H-HfoSN8iYpL4Tz-F-pN-26" value="LoginRequest" style="text;html=1;align=center;verticalAlign=middle;resizable=0;points=[];autosize=1;strokeColor=none;fillColor=none;fontStyle=1;fontSize=14;" vertex="1" parent="1">
          <mxGeometry x="145" y="178" width="110" height="30" as="geometry" />
        </mxCell>
        <mxCell id="H-HfoSN8iYpL4Tz-F-pN-27" value="" style="endArrow=classic;html=1;rounded=0;" edge="1" parent="1">
          <mxGeometry width="50" height="50" relative="1" as="geometry">
            <mxPoint x="300" y="250" as="sourcePoint" />
            <mxPoint x="500" y="250" as="targetPoint" />
          </mxGeometry>
        </mxCell>
        <mxCell id="H-HfoSN8iYpL4Tz-F-pN-28" value="校验AccessToken" style="text;html=1;align=center;verticalAlign=middle;whiteSpace=wrap;rounded=0;fontStyle=1;fontSize=14;" vertex="1" parent="1">
          <mxGeometry x="340" y="220" width="120" height="30" as="geometry" />
        </mxCell>
        <mxCell id="H-HfoSN8iYpL4Tz-F-pN-29" value="" style="endArrow=classic;html=1;rounded=0;" edge="1" parent="1">
          <mxGeometry width="50" height="50" relative="1" as="geometry">
            <mxPoint x="500" y="290" as="sourcePoint" />
            <mxPoint x="300" y="290" as="targetPoint" />
          </mxGeometry>
        </mxCell>
        <mxCell id="H-HfoSN8iYpL4Tz-F-pN-30" value="校验通过" style="text;html=1;align=center;verticalAlign=middle;whiteSpace=wrap;rounded=0;fontSize=14;fontStyle=1" vertex="1" parent="1">
          <mxGeometry x="370" y="260" width="60" height="30" as="geometry" />
        </mxCell>
        <mxCell id="H-HfoSN8iYpL4Tz-F-pN-31" value="" style="endArrow=classic;html=1;rounded=0;" edge="1" parent="1">
          <mxGeometry width="50" height="50" relative="1" as="geometry">
            <mxPoint x="300" y="330" as="sourcePoint" />
            <mxPoint x="100" y="330" as="targetPoint" />
          </mxGeometry>
        </mxCell>
        <mxCell id="H-HfoSN8iYpL4Tz-F-pN-32" value="返回GateId和Token" style="text;html=1;align=center;verticalAlign=middle;resizable=0;points=[];autosize=1;strokeColor=none;fillColor=none;fontSize=14;fontStyle=1" vertex="1" parent="1">
          <mxGeometry x="130" y="298" width="140" height="30" as="geometry" />
        </mxCell>
        <mxCell id="H-HfoSN8iYpL4Tz-F-pN-36" value="" style="endArrow=classic;html=1;rounded=0;" edge="1" parent="1">
          <mxGeometry width="50" height="50" relative="1" as="geometry">
            <mxPoint x="100" y="370" as="sourcePoint" />
            <mxPoint x="300" y="370" as="targetPoint" />
          </mxGeometry>
        </mxCell>
        <mxCell id="H-HfoSN8iYpL4Tz-F-pN-37" value="鉴权" style="text;html=1;align=center;verticalAlign=middle;resizable=0;points=[];autosize=1;strokeColor=none;fillColor=none;fontSize=14;fontStyle=1" vertex="1" parent="1">
          <mxGeometry x="175" y="338" width="50" height="30" as="geometry" />
        </mxCell>
        <mxCell id="H-HfoSN8iYpL4Tz-F-pN-38" value="" style="endArrow=classic;html=1;rounded=0;" edge="1" parent="1">
          <mxGeometry width="50" height="50" relative="1" as="geometry">
            <mxPoint x="300" y="410" as="sourcePoint" />
            <mxPoint x="100" y="410" as="targetPoint" />
          </mxGeometry>
        </mxCell>
        <mxCell id="H-HfoSN8iYpL4Tz-F-pN-39" value="返回Ticket" style="text;html=1;align=center;verticalAlign=middle;resizable=0;points=[];autosize=1;strokeColor=none;fillColor=none;fontSize=14;fontStyle=1" vertex="1" parent="1">
          <mxGeometry x="155" y="378" width="90" height="30" as="geometry" />
        </mxCell>
        <mxCell id="H-HfoSN8iYpL4Tz-F-pN-41" value="" style="endArrow=classic;html=1;rounded=0;" edge="1" parent="1">
          <mxGeometry width="50" height="50" relative="1" as="geometry">
            <mxPoint x="100" y="480" as="sourcePoint" />
            <mxPoint x="700" y="480" as="targetPoint" />
          </mxGeometry>
        </mxCell>
        <mxCell id="H-HfoSN8iYpL4Tz-F-pN-42" value="接入" style="text;html=1;align=center;verticalAlign=middle;resizable=0;points=[];autosize=1;strokeColor=none;fillColor=none;fontSize=14;fontStyle=1" vertex="1" parent="1">
          <mxGeometry x="380" y="448" width="50" height="30" as="geometry" />
        </mxCell>
        <mxCell id="H-HfoSN8iYpL4Tz-F-pN-44" value="检查Ticket有效性" style="rounded=0;whiteSpace=wrap;html=1;fillColor=#fff2cc;strokeColor=#d6b656;fontStyle=1;fontSize=14;" vertex="1" parent="1">
          <mxGeometry x="630" y="490" width="140" height="40" as="geometry" />
        </mxCell>
        <mxCell id="H-HfoSN8iYpL4Tz-F-pN-45" value="" style="endArrow=classic;html=1;rounded=0;" edge="1" parent="1">
          <mxGeometry width="50" height="50" relative="1" as="geometry">
            <mxPoint x="700" y="570" as="sourcePoint" />
            <mxPoint x="900" y="570" as="targetPoint" />
          </mxGeometry>
        </mxCell>
        <mxCell id="H-HfoSN8iYpL4Tz-F-pN-46" value="创建会话SessionID" style="text;html=1;align=center;verticalAlign=middle;resizable=0;points=[];autosize=1;strokeColor=none;fillColor=none;fontSize=14;fontStyle=1" vertex="1" parent="1">
          <mxGeometry x="730" y="537" width="140" height="30" as="geometry" />
        </mxCell>
        <mxCell id="H-HfoSN8iYpL4Tz-F-pN-47" value="" style="endArrow=classic;html=1;rounded=0;" edge="1" parent="1">
          <mxGeometry width="50" height="50" relative="1" as="geometry">
            <mxPoint x="900" y="610" as="sourcePoint" />
            <mxPoint x="700" y="610" as="targetPoint" />
          </mxGeometry>
        </mxCell>
        <mxCell id="H-HfoSN8iYpL4Tz-F-pN-48" value="返回会话ID" style="text;html=1;align=center;verticalAlign=middle;resizable=0;points=[];autosize=1;strokeColor=none;fillColor=none;fontStyle=1;fontSize=14;" vertex="1" parent="1">
          <mxGeometry x="755" y="578" width="90" height="30" as="geometry" />
        </mxCell>
        <mxCell id="H-HfoSN8iYpL4Tz-F-pN-49" value="" style="endArrow=none;html=1;rounded=0;startArrow=classic;startFill=1;endFill=0;" edge="1" parent="1">
          <mxGeometry width="50" height="50" relative="1" as="geometry">
            <mxPoint x="100" y="650" as="sourcePoint" />
            <mxPoint x="700" y="650" as="targetPoint" />
          </mxGeometry>
        </mxCell>
        <mxCell id="H-HfoSN8iYpL4Tz-F-pN-50" value="接入成功返回会话ID和SessionTicket" style="text;html=1;align=center;verticalAlign=middle;resizable=0;points=[];autosize=1;strokeColor=none;fillColor=none;fontStyle=1;fontSize=14;" vertex="1" parent="1">
          <mxGeometry x="275" y="620" width="250" height="30" as="geometry" />
        </mxCell>
        <mxCell id="H-HfoSN8iYpL4Tz-F-pN-52" value="保存Session信息" style="rounded=0;whiteSpace=wrap;html=1;fillColor=#fff2cc;strokeColor=#d6b656;fontStyle=1;fontSize=14;" vertex="1" parent="1">
          <mxGeometry x="30" y="670" width="140" height="40" as="geometry" />
        </mxCell>
        <mxCell id="H-HfoSN8iYpL4Tz-F-pN-59" value="loop" style="html=1;dashed=0;whiteSpace=wrap;shape=mxgraph.dfd.loop;fillColor=#e1d5e7;strokeColor=#9673a6;fontSize=13;fontStyle=1" vertex="1" parent="1">
          <mxGeometry x="20" y="419" width="50" height="21" as="geometry" />
        </mxCell>
        <mxCell id="H-HfoSN8iYpL4Tz-F-pN-60" value="[未接入成功]" style="text;html=1;align=center;verticalAlign=middle;whiteSpace=wrap;rounded=0;fontSize=14;" vertex="1" parent="1">
          <mxGeometry x="530" y="419" width="80" height="30" as="geometry" />
        </mxCell>
        <mxCell id="H-HfoSN8iYpL4Tz-F-pN-62" value="加载Session信息" style="rounded=0;whiteSpace=wrap;html=1;fillColor=#fff2cc;strokeColor=#d6b656;fontStyle=1;fontSize=14;" vertex="1" parent="1">
          <mxGeometry x="30" y="760" width="140" height="40" as="geometry" />
        </mxCell>
        <mxCell id="H-HfoSN8iYpL4Tz-F-pN-63" value="" style="endArrow=classic;html=1;rounded=0;" edge="1" parent="1">
          <mxGeometry width="50" height="50" relative="1" as="geometry">
            <mxPoint x="100" y="840" as="sourcePoint" />
            <mxPoint x="700" y="840" as="targetPoint" />
          </mxGeometry>
        </mxCell>
        <mxCell id="H-HfoSN8iYpL4Tz-F-pN-64" value="携带SessinID和SessionTicket重连" style="text;html=1;align=center;verticalAlign=middle;resizable=0;points=[];autosize=1;strokeColor=none;fillColor=none;fontSize=14;fontStyle=1" vertex="1" parent="1">
          <mxGeometry x="280" y="810" width="240" height="30" as="geometry" />
        </mxCell>
        <mxCell id="H-HfoSN8iYpL4Tz-F-pN-65" value="检查SessionTicket有效性" style="rounded=0;whiteSpace=wrap;html=1;fillColor=#fff2cc;strokeColor=#d6b656;fontStyle=1;fontSize=14;" vertex="1" parent="1">
          <mxGeometry x="610" y="850" width="180" height="40" as="geometry" />
        </mxCell>
        <mxCell id="H-HfoSN8iYpL4Tz-F-pN-66" value="" style="endArrow=classic;html=1;rounded=0;" edge="1" parent="1">
          <mxGeometry width="50" height="50" relative="1" as="geometry">
            <mxPoint x="700" y="930" as="sourcePoint" />
            <mxPoint x="900" y="930" as="targetPoint" />
          </mxGeometry>
        </mxCell>
        <mxCell id="H-HfoSN8iYpL4Tz-F-pN-67" value="检查SessionID" style="text;html=1;align=center;verticalAlign=middle;resizable=0;points=[];autosize=1;strokeColor=none;fillColor=none;fontSize=14;fontStyle=1" vertex="1" parent="1">
          <mxGeometry x="740" y="898" width="120" height="30" as="geometry" />
        </mxCell>
        <mxCell id="H-HfoSN8iYpL4Tz-F-pN-68" value="" style="endArrow=classic;html=1;rounded=0;" edge="1" parent="1">
          <mxGeometry width="50" height="50" relative="1" as="geometry">
            <mxPoint x="900" y="970" as="sourcePoint" />
            <mxPoint x="700" y="970" as="targetPoint" />
          </mxGeometry>
        </mxCell>
        <mxCell id="H-HfoSN8iYpL4Tz-F-pN-69" value="SessionID有效" style="text;html=1;align=center;verticalAlign=middle;resizable=0;points=[];autosize=1;strokeColor=none;fillColor=none;fontSize=14;fontStyle=1" vertex="1" parent="1">
          <mxGeometry x="740" y="938" width="120" height="30" as="geometry" />
        </mxCell>
        <mxCell id="H-HfoSN8iYpL4Tz-F-pN-70" value="" style="endArrow=none;html=1;rounded=0;startArrow=classic;startFill=1;endFill=0;" edge="1" parent="1">
          <mxGeometry width="50" height="50" relative="1" as="geometry">
            <mxPoint x="100" y="1010" as="sourcePoint" />
            <mxPoint x="700" y="1010" as="targetPoint" />
          </mxGeometry>
        </mxCell>
        <mxCell id="H-HfoSN8iYpL4Tz-F-pN-71" value="重连成功" style="text;html=1;align=center;verticalAlign=middle;resizable=0;points=[];autosize=1;strokeColor=none;fillColor=none;fontSize=14;fontStyle=1" vertex="1" parent="1">
          <mxGeometry x="360" y="980" width="80" height="30" as="geometry" />
        </mxCell>
        <mxCell id="H-HfoSN8iYpL4Tz-F-pN-73" value="opt" style="html=1;dashed=0;whiteSpace=wrap;shape=mxgraph.dfd.loop;fillColor=#e1d5e7;strokeColor=#9673a6;fontSize=13;fontStyle=1" vertex="1" parent="1">
          <mxGeometry x="20" y="730" width="50" height="21" as="geometry" />
        </mxCell>
        <mxCell id="H-HfoSN8iYpL4Tz-F-pN-74" value="[链接断开]" style="text;html=1;align=center;verticalAlign=middle;whiteSpace=wrap;rounded=0;fontSize=14;" vertex="1" parent="1">
          <mxGeometry x="530" y="730" width="80" height="30" as="geometry" />
        </mxCell>
        <mxCell id="H-HfoSN8iYpL4Tz-F-pN-75" value="" style="endArrow=classic;html=1;rounded=0;" edge="1" parent="1">
          <mxGeometry width="50" height="50" relative="1" as="geometry">
            <mxPoint x="100" y="1080" as="sourcePoint" />
            <mxPoint x="700" y="1080" as="targetPoint" />
          </mxGeometry>
        </mxCell>
        <mxCell id="H-HfoSN8iYpL4Tz-F-pN-76" value="心跳" style="text;html=1;align=center;verticalAlign=middle;resizable=0;points=[];autosize=1;strokeColor=none;fillColor=none;fontSize=14;fontStyle=1" vertex="1" parent="1">
          <mxGeometry x="375" y="1050" width="50" height="30" as="geometry" />
        </mxCell>
        <mxCell id="H-HfoSN8iYpL4Tz-F-pN-77" value="" style="endArrow=none;html=1;rounded=0;startArrow=classic;startFill=1;endFill=0;" edge="1" parent="1">
          <mxGeometry width="50" height="50" relative="1" as="geometry">
            <mxPoint x="900" y="1110" as="sourcePoint" />
            <mxPoint x="700" y="1110.41" as="targetPoint" />
          </mxGeometry>
        </mxCell>
        <mxCell id="H-HfoSN8iYpL4Tz-F-pN-78" value="更新Seesion有效期" style="text;html=1;align=center;verticalAlign=middle;resizable=0;points=[];autosize=1;strokeColor=none;fillColor=none;fontSize=14;fontStyle=1" vertex="1" parent="1">
          <mxGeometry x="730" y="1080" width="140" height="30" as="geometry" />
        </mxCell>
        <mxCell id="H-HfoSN8iYpL4Tz-F-pN-79" value="更新Session信息" style="rounded=0;whiteSpace=wrap;html=1;fillColor=#fff2cc;strokeColor=#d6b656;fontStyle=1;fontSize=14;" vertex="1" parent="1">
          <mxGeometry x="30" y="1160" width="140" height="40" as="geometry" />
        </mxCell>
        <mxCell id="H-HfoSN8iYpL4Tz-F-pN-81" value="loop" style="html=1;dashed=0;whiteSpace=wrap;shape=mxgraph.dfd.loop;fillColor=#e1d5e7;strokeColor=#9673a6;fontSize=13;fontStyle=1" vertex="1" parent="1">
          <mxGeometry x="20" y="1040" width="50" height="21" as="geometry" />
        </mxCell>
        <mxCell id="H-HfoSN8iYpL4Tz-F-pN-82" value="[心跳保活]" style="text;html=1;align=center;verticalAlign=middle;whiteSpace=wrap;rounded=0;fontSize=14;" vertex="1" parent="1">
          <mxGeometry x="530" y="1040" width="80" height="30" as="geometry" />
        </mxCell>
        <mxCell id="H-HfoSN8iYpL4Tz-F-pN-83" value="" style="endArrow=classic;html=1;rounded=0;" edge="1" parent="1">
          <mxGeometry width="50" height="50" relative="1" as="geometry">
            <mxPoint x="100" y="1267" as="sourcePoint" />
            <mxPoint x="700" y="1267" as="targetPoint" />
          </mxGeometry>
        </mxCell>
        <mxCell id="H-HfoSN8iYpL4Tz-F-pN-84" value="请求" style="text;html=1;align=center;verticalAlign=middle;resizable=0;points=[];autosize=1;strokeColor=none;fillColor=none;fontStyle=1;fontSize=14;" vertex="1" parent="1">
          <mxGeometry x="375" y="1235" width="50" height="30" as="geometry" />
        </mxCell>
        <mxCell id="H-HfoSN8iYpL4Tz-F-pN-85" value="" style="endArrow=classic;html=1;rounded=0;" edge="1" parent="1">
          <mxGeometry width="50" height="50" relative="1" as="geometry">
            <mxPoint x="700" y="1307" as="sourcePoint" />
            <mxPoint x="1100" y="1307" as="targetPoint" />
          </mxGeometry>
        </mxCell>
        <mxCell id="H-HfoSN8iYpL4Tz-F-pN-86" value="请求" style="text;html=1;align=center;verticalAlign=middle;resizable=0;points=[];autosize=1;strokeColor=none;fillColor=none;fontSize=14;fontStyle=1" vertex="1" parent="1">
          <mxGeometry x="872" y="1275" width="50" height="30" as="geometry" />
        </mxCell>
        <mxCell id="H-HfoSN8iYpL4Tz-F-pN-89" value="" style="endArrow=none;html=1;rounded=0;startArrow=classic;startFill=1;endFill=0;" edge="1" parent="1">
          <mxGeometry width="50" height="50" relative="1" as="geometry">
            <mxPoint x="700" y="1347" as="sourcePoint" />
            <mxPoint x="1100" y="1347" as="targetPoint" />
          </mxGeometry>
        </mxCell>
        <mxCell id="H-HfoSN8iYpL4Tz-F-pN-90" value="响应" style="text;html=1;align=center;verticalAlign=middle;resizable=0;points=[];autosize=1;strokeColor=none;fillColor=none;fontSize=14;fontStyle=1" vertex="1" parent="1">
          <mxGeometry x="871" y="1317" width="50" height="30" as="geometry" />
        </mxCell>
        <mxCell id="H-HfoSN8iYpL4Tz-F-pN-91" value="" style="endArrow=none;html=1;rounded=0;startArrow=classic;startFill=1;endFill=0;" edge="1" parent="1">
          <mxGeometry width="50" height="50" relative="1" as="geometry">
            <mxPoint x="100" y="1387" as="sourcePoint" />
            <mxPoint x="700" y="1387" as="targetPoint" />
          </mxGeometry>
        </mxCell>
        <mxCell id="H-HfoSN8iYpL4Tz-F-pN-92" value="响应" style="text;html=1;align=center;verticalAlign=middle;resizable=0;points=[];autosize=1;strokeColor=none;fillColor=none;fontStyle=1;fontSize=14;" vertex="1" parent="1">
          <mxGeometry x="375" y="1357" width="50" height="30" as="geometry" />
        </mxCell>
        <mxCell id="H-HfoSN8iYpL4Tz-F-pN-94" value="loop" style="html=1;dashed=0;whiteSpace=wrap;shape=mxgraph.dfd.loop;fillColor=#e1d5e7;strokeColor=#9673a6;fontSize=13;fontStyle=1" vertex="1" parent="1">
          <mxGeometry x="90" y="1220" width="50" height="21" as="geometry" />
        </mxCell>
        <mxCell id="H-HfoSN8iYpL4Tz-F-pN-95" value="[通讯]" style="text;html=1;align=center;verticalAlign=middle;whiteSpace=wrap;rounded=0;fontSize=14;" vertex="1" parent="1">
          <mxGeometry x="530" y="1220" width="80" height="30" as="geometry" />
        </mxCell>
        <mxCell id="H-HfoSN8iYpL4Tz-F-pN-96" value="" style="endArrow=none;html=1;rounded=0;startArrow=classic;startFill=1;endFill=0;" edge="1" parent="1">
          <mxGeometry width="50" height="50" relative="1" as="geometry">
            <mxPoint x="100" y="1150" as="sourcePoint" />
            <mxPoint x="700" y="1150" as="targetPoint" />
          </mxGeometry>
        </mxCell>
        <mxCell id="H-HfoSN8iYpL4Tz-F-pN-97" value="响应心跳" style="text;html=1;align=center;verticalAlign=middle;whiteSpace=wrap;rounded=0;fontSize=14;fontStyle=1" vertex="1" parent="1">
          <mxGeometry x="370" y="1120" width="60" height="30" as="geometry" />
        </mxCell>
      </root>
    </mxGraphModel>
  </diagram>
</mxfile>
